<svg xmlns="http://www.w3.org/2000/svg" viewBox="0 0 111.46 23.16"><defs><style>.cls-1{fill:#fff;}</style></defs><g id="Layer_2" data-name="Layer 2"><g id="Layer_2-2" data-name="Layer 2"><path class="cls-1" d="M18.39,9.72l.27-.21.12-.09h0s0,0,0,0V9.31l-.9.56,0,.19Zm60.94,3.75H80v-2.9h-.62Zm8.9-1.54a.86.86,0,0,1,.23-.68A.77.77,0,0,1,89,11c.41,0,.62.26.62.77v1.68h.61V11.59a1,1,0,0,0-.3-.8,1.13,1.13,0,0,0-.78-.28,1.21,1.21,0,0,0-.58.14.86.86,0,0,0-.4.4l0-.48h-.55v2.9h.62Zm-8.58-1.85A.4.4,0,0,0,80,10a.38.38,0,0,0,.11-.28A.38.38,0,0,0,80,9.41a.45.45,0,0,0-.3-.09.46.46,0,0,0-.31.09.35.35,0,0,0-.11.29.34.34,0,0,0,.11.28A.41.41,0,0,0,79.65,10.08Zm6,3.44a1.24,1.24,0,0,0,1.24-.67l-.51-.21a.57.57,0,0,1-.26.29,1,1,0,0,1-.47.1.78.78,0,0,1-.57-.2.88.88,0,0,1-.27-.58h2.11a1.66,1.66,0,0,0,0-.32,1.45,1.45,0,0,0-.36-1,1.24,1.24,0,0,0-1-.39,1.36,1.36,0,0,0-1,.4A1.58,1.58,0,0,0,84.16,12a1.49,1.49,0,0,0,.39,1.1A1.39,1.39,0,0,0,85.62,13.52ZM85,11.2a.77.77,0,0,1,.55-.19.66.66,0,0,1,.51.2.89.89,0,0,1,.25.56H84.78A1,1,0,0,1,85,11.2Zm17.1.66a1.72,1.72,0,0,0-.85.33.72.72,0,0,0-.28.58.65.65,0,0,0,.26.56,1.1,1.1,0,0,0,.68.19,1.41,1.41,0,0,0,.59-.11.83.83,0,0,0,.39-.32.54.54,0,0,0,.19.34.79.79,0,0,0,.4.09,1,1,0,0,0,.36-.06l0-.42-.21,0a.25.25,0,0,1-.17-.05.25.25,0,0,1,0-.16V11.54a.93.93,0,0,0-.33-.77,1.62,1.62,0,0,0-1.68,0,1,1,0,0,0-.43.55l.48.25a.72.72,0,0,1,.75-.52.62.62,0,0,1,.44.15.57.57,0,0,1,.15.42v.16Zm.73.64a.48.48,0,0,1-.24.41,1.07,1.07,0,0,1-.55.14.53.53,0,0,1-.32-.08.3.3,0,0,1-.11-.24.34.34,0,0,1,.14-.28,1.06,1.06,0,0,1,.45-.16l.63-.13ZM0,0V23.16H111.46V0ZM22.55,22.52H.66V.64H22.55Zm43.81,0H23.2V.64H66.36Zm44.46,0H67V.64h43.81ZM75,11.25l0-1.05h0l1.17,3.27h.51l1.17-3.27h0l0,1.05v2.22h.57V9.64h-.9l-.77,2.22-.27.91h0l-.27-.91-.77-2.22h-.92v3.83H75Zm6.42.68a.9.9,0,0,1,.23-.68.79.79,0,0,1,.56-.23c.41,0,.62.26.62.77v1.68h.62V11.59a1,1,0,0,0-.3-.8,1.17,1.17,0,0,0-.79-.28,1.21,1.21,0,0,0-.58.14.91.91,0,0,0-.4.4l0-.48h-.55v2.9h.62Zm10.94,1.59a1.25,1.25,0,0,0,1.25-.67l-.52-.21a.53.53,0,0,1-.26.29.94.94,0,0,1-.47.1.8.8,0,0,1-.57-.2,1,1,0,0,1-.27-.58h2.12a1.67,1.67,0,0,0,0-.32,1.45,1.45,0,0,0-.35-1,1.25,1.25,0,0,0-1-.39,1.33,1.33,0,0,0-1,.4A1.54,1.54,0,0,0,90.94,12a1.53,1.53,0,0,0,.38,1.1A1.42,1.42,0,0,0,92.39,13.52Zm-.58-2.32a.76.76,0,0,1,.54-.19.68.68,0,0,1,.52.2,1,1,0,0,1,.25.56H91.55A1,1,0,0,1,91.81,11.2Zm8.5-.63h-.62v2.9h.62Zm.46-1.42h-.62l-.43,1h.48ZM96.32,14a.61.61,0,0,0,.34.54,2.17,2.17,0,0,0,1,.2,2.58,2.58,0,0,0,.76-.11,1.33,1.33,0,0,0,.53-.33.76.76,0,0,0,.2-.51.67.67,0,0,0-.25-.55,1.06,1.06,0,0,0-.68-.19h-1a.4.4,0,0,1-.26-.08.22.22,0,0,1-.1-.2.28.28,0,0,1,.07-.21.35.35,0,0,1,.21-.11,2.28,2.28,0,0,0,.48.05,1.43,1.43,0,0,0,.91-.27.84.84,0,0,0,.35-.71.89.89,0,0,0-.11-.43,1,1,0,0,0-.29-.32.43.43,0,0,1,.23-.23,1.18,1.18,0,0,1,.45-.07l-.1-.48a.89.89,0,0,0-.56.16.83.83,0,0,0-.29.49,1.63,1.63,0,0,0-.59-.1,1.69,1.69,0,0,0-.66.12,1,1,0,0,0-.44.35.91.91,0,0,0-.16.51.85.85,0,0,0,.12.46.83.83,0,0,0,.33.34.57.57,0,0,0-.45.57.47.47,0,0,0,.11.33.72.72,0,0,0,.29.22.83.83,0,0,0-.38.22A.47.47,0,0,0,96.32,14Zm.92-2.87a.75.75,0,0,1,.9,0,.48.48,0,0,1,.18.39.5.5,0,0,1-.18.4.75.75,0,0,1-.9,0,.5.5,0,0,1-.17-.4A.48.48,0,0,1,97.24,11.1ZM97,13.61a.76.76,0,0,1,.39-.08h.78a.9.9,0,0,1,.39.07.28.28,0,0,1,.11.23q0,.18-.24.3a1.44,1.44,0,0,1-.66.12,1.71,1.71,0,0,1-.68-.11.32.32,0,0,1-.22-.3A.26.26,0,0,1,97,13.61ZM10.47,9.08h0l0,0h.07v0h.11v0h0V8.74h-.11v0h0v.08h0l-.05,0a.06.06,0,0,0-.09,0,.12.12,0,0,0,0,.1.19.19,0,0,0,0,.1S10.46,9.07,10.47,9.08Zm0-.21h0l0,0a.09.09,0,0,1,0,0v.13h-.07l0,0a.23.23,0,0,1,0-.16ZM95,11.93a1,1,0,0,1,.11-.47.79.79,0,0,1,.27-.3.74.74,0,0,1,.35-.1.75.75,0,0,1,.37.08l.1-.57a.73.73,0,0,0-.32-.06.92.92,0,0,0-.92.58l0-.52h-.53v2.9H95ZM8.67,9.14h0a.17.17,0,0,1-.06.09l-.13,0H8.38V8.9a.05.05,0,0,1,0,0l0,0h0v0l-.23,0v0h0s0,0,0,0v.33s0,.05,0,.05l0,0h0v0l.41-.06Zm5.52,0h.06l0,0v0h.13v0h0l0,0s0,0,0,0V8.66h-.13v0h0s0,0,0,0v.09h0l0,0a.12.12,0,0,0-.12,0,.19.19,0,0,0-.05.13.25.25,0,0,0,0,.12A.31.31,0,0,0,14.19,9.15Zm0-.31s0,0,0,0h0l0,0a.09.09,0,0,1,0,.07v.15l0,0h0s-.05,0-.07-.05a.26.26,0,0,1,0-.11A.12.12,0,0,1,14.15,8.84Zm-5.27.32H8.83V8.86h0l-.09.07h0V9h0s0,0,0,0h0a0,0,0,0,1,0,0v.17a.2.2,0,0,1,0,0l-.05,0h0v0l.19-.08ZM8.77,8.8a0,0,0,0,0,0,0s0,0,0,0a.05.05,0,0,0,0,0s0,0,0,0h0s0,0,0,0a0,0,0,0,0,0,0s0,0,0,0S8.76,8.8,8.77,8.8Zm5.8.49h.11s.05,0,.06-.07h0l0,0h0a.05.05,0,0,1,0,0h-.06a.18.18,0,0,1-.08-.07.34.34,0,0,1,0-.12l.23.09h0a.17.17,0,0,0,0-.12.23.23,0,0,0-.09-.08.1.1,0,0,0-.12,0,.13.13,0,0,0-.05.11.22.22,0,0,0,0,.13A.29.29,0,0,0,14.57,9.29ZM14.51,9s0,0,.05,0,0,0,.06,0a.06.06,0,0,0,0,0L14.5,9S14.5,9,14.51,9Zm.29.11V9.3a0,0,0,0,1,0,0h0v0l.18,0v0h0s0,0,0,0V9.12l0,0h0s0,0,0,0a.07.07,0,0,1,0,.05v.19h-.05v0l.18,0v0h0s0,0,0,0V9.16a.14.14,0,0,0,0-.11h-.12s0,0,0,0V9h-.13v0h.05Zm-2.41,6.35h.06v0a.34.34,0,0,1,0-.14.32.32,0,0,1,0-.14v0h-.2v0a.59.59,0,0,1,0-.14.68.68,0,0,1,0-.14v0h-.07l.09,0L12,14.66l0,.11h-.2a.57.57,0,0,0,0,.3v0h0v0a.59.59,0,0,1,0-.14.68.68,0,0,1,0-.14v0h0l.09,0-.24-.08,0,.11h-.24a.57.57,0,0,0,0,.3v0h-.25v0a.34.34,0,0,0,0,.15v.06h-.42l.09.22h.11l.14.19h1.37l.28-.27h-.26Zm-1.2-.19s0-.07,0-.08h.26s0,.05,0,.08,0,.07,0,.09H11.2A.78.78,0,0,1,11.19,15.24Zm.06.23,0,0h0Zm.22,0h-.1v0h.1Zm0-.47a.21.21,0,0,1,0-.18h.26a.41.41,0,0,0,0,.18Zm.21.47h-.07v0h.07Zm.21,0h-.09v0h.09Zm0-.15h-.26a.56.56,0,0,1,0-.07v0a.13.13,0,0,0,0-.05h.26s0,.05,0,.08A.22.22,0,0,0,11.9,15.32Zm0-.32s0-.05,0-.09,0-.07,0-.09h.26s0,0,0,.09,0,.07,0,.09Zm.19.47H12V15.4s0,0,0,0h.06Zm.12,0v0h.08l0,0Zm.15-.14h-.26a.2.2,0,0,1,0-.09.17.17,0,0,1,0-.08h.26a.19.19,0,0,0,0,.08A.22.22,0,0,0,12.34,15.33ZM10.15,8.88A.09.09,0,0,0,10.1,9a.05.05,0,0,0,0,0s0,0,0,0a.06.06,0,0,0,.06,0l0,0s0,0,0,0l0,0h0l0,0h0V9h-.05V8.86a.15.15,0,0,0,0-.07s0,0-.09-.06a.11.11,0,0,0-.08,0,.05.05,0,0,0,0,0,0,0,0,0,0,0,0l0,0h0a.05.05,0,0,0,0,0h0s0,0,0,0v.06Zm.11.09V9h0l0,0s0,0,0,0,0,0,0,0l0,0ZM9.79,9H9.73s0,0,0,0V8.78l0,0,0,0h0l0,0s0,0,0,0a.05.05,0,0,0,0-.06h0a.06.06,0,0,0-.05,0l0,0V8.66H9.64l-.05,0v0h0l0,0V9H9.59V9h.2Zm-.9-.26s0,0,0,0v.38s0,0,0,0H9A.28.28,0,0,0,9.16,9a.3.3,0,0,0,.05-.15.16.16,0,0,0,0-.11.1.1,0,0,0-.1,0L9,8.81l0,0V8.64H9l0,0-.07,0h0v0h.05ZM9,8.9l0,0,0,0h0l0,0a.12.12,0,0,1,0,.09.19.19,0,0,1,0,.1A.1.1,0,0,1,9,9.09H9Zm.41.15h0a.24.24,0,0,0,.16-.16h0s0,0,0,.06a.07.07,0,0,1-.06,0,.06.06,0,0,1-.07,0,.16.16,0,0,1,0-.11l.23,0h0a.11.11,0,0,0-.14-.12.15.15,0,0,0-.11.07.24.24,0,0,0-.05.14.28.28,0,0,0,0,.12A.1.1,0,0,0,9.38,9.05Zm0-.28a.08.08,0,0,1,.05,0h0s0,0,0,0a.1.1,0,0,1,0,0H9.33A0,0,0,0,1,9.34,8.77Zm.58,0v.19a.07.07,0,0,0,0,.05S10,9,10,9h0l0,0h0l0,0H10V8.74h.07v0H10V8.62h0s0,.06-.05.06l0,0h0ZM5.83,9.89l0,0a.85.85,0,0,1-.19-.14l0-.08c0-.06,0-.13-.08-.16L4,9l.1.13c.92,1.08,1,1.08,1,1.08h.32l-.07.8v1.68a15.08,15.08,0,0,0,.23,1.72,5.79,5.79,0,0,0,1.11,2.4l.07.08h0a2.78,2.78,0,0,0,2,1,3.89,3.89,0,0,0,2-.71,8.3,8.3,0,0,1-.8,1.61l0,0,.06,0,.14,0h.28l.21,0-.1.32v.05s0,0,0,0v0h0c0,.12.28.15.28.15h.26l0,.26h0c.09.27.46.27.67.27h0a.73.73,0,0,0,.47-.11.2.2,0,0,0,.06-.15s0,0,0-.15l0-.11a.76.76,0,0,0,.47-.11.17.17,0,0,0,.06-.1h0s0,0,0,0v0a1,1,0,0,0-.06-.22,1.42,1.42,0,0,1-.05-.16h.72l-.05-.07a6.38,6.38,0,0,1-.64-1.28l0-.1a1.66,1.66,0,0,1-.06-.16l.05,0a3.84,3.84,0,0,0,1.95.61A3,3,0,0,0,17,16.34,5.92,5.92,0,0,0,18,13.57l0-.23c0-.25.07-.59.07-.68V11l-.06-.8h.32v0a11,11,0,0,0,.88-1,.43.43,0,0,0,0-.05h0v0l0,0-.59.22-.62.22h0v0c0,.16-.13.25-.29.35v-.3l-.07-.76h.07a.44.44,0,0,0,.28,0,3.3,3.3,0,0,0,.53-.6l.05-.07L18.58,8h.11c.21,0,.24-.13.24-.21s-.27-.34-.4-.41v0c0-.21-.44-.45-.76-.61h0a.33.33,0,0,0-.08-.18,14.92,14.92,0,0,0-3.33-2.25,1.68,1.68,0,0,0-.74-.16,3.89,3.89,0,0,0-1.29.25.65.65,0,0,0-.21.47,1,1,0,0,0,.25.58.53.53,0,0,1,.15.27.11.11,0,0,1-.08.1.49.49,0,0,0-.49-.27l-.12,0h-.1a.44.44,0,0,1-.08-.11.56.56,0,0,0,0-.07.28.28,0,0,0,0-.08c0-.14-.09-.21-.22-.29a.11.11,0,0,0,0,0,.2.2,0,0,0-.17-.09.84.84,0,0,0-.24.07h0a.51.51,0,0,0,0-.23c0-.63-.91-.65-1-.65-1.28,0-2.84,1.09-4.21,2.12a1.73,1.73,0,0,0-.26.28,1.15,1.15,0,0,1-.27.27l-.17.1a1.31,1.31,0,0,0-.37.26.32.32,0,0,0-.08.12.24.24,0,0,1,0,.07l-.12.1c-.12.1-.24.2-.24.33a.19.19,0,0,0,.2.2.5.5,0,0,0,.25-.07h0l.81,1h0a.39.39,0,0,0,.3.05H5.9l-.07.75Zm3,7.9A2.62,2.62,0,0,1,7,17l.17.08a2,2,0,0,0,.76.13,2.74,2.74,0,0,0,.7-.09,3.62,3.62,0,0,0,1.27-.87,11.25,11.25,0,0,0,.89.83A3.88,3.88,0,0,1,8.83,17.79ZM7.21,11.12l.33.21H7c0-.07,0-.15,0-.21ZM6.94,11v-.1l.14.1Zm0,.39h.7l0,0c0,.06,0,.13,0,.2H7.24L7,11.42Zm.74.3s0,.11,0,.15a2,2,0,0,1-.34-.15Zm-.61-.08H7s0-.07,0-.1Zm.12.08a2.13,2.13,0,0,0,.43.21H7c0-.07,0-.14,0-.21Zm.52.3a1.8,1.8,0,0,0,0,.22H7c0-.08,0-.15,0-.22Zm0,.3c0,.07,0,.14,0,.21H7c0-.07,0-.14,0-.21Zm0,.3,0,.22H7.07l0-.22Zm.32-1.29H8c0-.06-.05-.23-.07-.34s0-.11,0-.17h.2v.51Zm-.21-.6c0-.19,0-.38,0-.5H8l.16.12c0,.13,0,.28,0,.38Zm.24,1.2H7.89l-.08,0c0-.15,0-.29,0-.41l.33.23C8.12,11.8,8.12,11.87,8.13,11.93Zm-2-4.12,0,0c.26.32.45.44.71.44a1.31,1.31,0,0,0,.47-.14A1.13,1.13,0,0,1,7.7,8l-.18.14a1.11,1.11,0,0,0-.23.19.32.32,0,0,0,0,.17,1.33,1.33,0,0,0,.45.94.6.6,0,0,0,.43.15h.05a.07.07,0,0,1,0,.05.31.31,0,0,1,0,.1,1.63,1.63,0,0,1,0,.25h0v.06C7.41,9.55,6.7,9,6.07,8.49a.27.27,0,0,1,0-.11A.23.23,0,0,0,6,8.21H6l-1-.42.18,0,.12,0a.4.4,0,0,0,.21.07A1.32,1.32,0,0,0,6,7.6s0,0,0,0S6,7.7,6.1,7.81Zm.47-.16c0-.06,0-.16,0-.24a.13.13,0,0,1,0-.06l.06.06A.85.85,0,0,0,7,7.59a1.2,1.2,0,0,0,.27-.07,1.85,1.85,0,0,1,.32-.08c.23,0,.54.38.63.64L8.07,8a1.23,1.23,0,0,0-.25-.07h0a1,1,0,0,0-.55.12,1.11,1.11,0,0,1-.43.13c-.23,0-.4-.11-.64-.4l0,0L6.1,7.67l.47,0Zm3.2-1.42c-.06.07-.07.21-.19.24a.1.1,0,0,1,0-.07A.44.44,0,0,1,10,6s0,0,0,0S9.84,6.14,9.77,6.23Zm.21.18v.08c0,.1-.12.24-.13.37a.15.15,0,0,1-.09-.12C9.76,6.63,9.82,6.44,10,6.41ZM9.55,6a.11.11,0,0,1,0-.06c0-.21.33-.27.43-.29h0A1.34,1.34,0,0,1,9.55,6Zm0-.92h0s0,0,0,0,.31-.14.31-.14.11,0,.11.05S9.57,5.1,9.53,5.11Zm.08.11s.2,0,.2.07,0,.09-.06.09a.87.87,0,0,0-.41.11s0,0,0-.06S9.53,5.22,9.61,5.22Zm0,.35.13,0a4.06,4.06,0,0,1-.39.22.09.09,0,0,1-.08-.08C9.27,5.64,9.56,5.57,9.61,5.57Zm-.34.51a1.7,1.7,0,0,0-.1.37c0,.08,0,.07.09.2l-.11,0C9,6.67,9,6.52,9,6.46A.54.54,0,0,1,9.27,6.08Zm-.42.46c0,.09,0,0,.06.16l-.09,0c-.1,0-.13-.08-.13-.15A.53.53,0,0,1,9,6.15H9C9,6.31,8.85,6.41,8.85,6.54ZM8.77,7l.09,0,.09,0H9a.34.34,0,0,0,.18-.08.05.05,0,0,0,.05,0,.15.15,0,0,0,.11-.06h0l.12,0a.2.2,0,0,0,.14-.06h0v.08c0,.16.42.42.49.42h0a.15.15,0,0,0,.12,0c0,.07.07.14.12.15a.79.79,0,0,0,0,.21c0,.15,0,.38.16.49a2.11,2.11,0,0,0-.16.34h0a2.76,2.76,0,0,0-.6-.1,3.26,3.26,0,0,0-.89.16,2.37,2.37,0,0,1-.66.12,1,1,0,0,0,.15-.39c0-.28-.41-.85-.74-.85a1.19,1.19,0,0,0-.34.08A1.09,1.09,0,0,1,7,7.5a.73.73,0,0,1-.31-.13.68.68,0,0,0,.58-.19l0,0h0a.28.28,0,0,0,.11,0A.79.79,0,0,0,7.91,7l0,0,.09,0a.24.24,0,0,0,.12,0l.14-.09.21-.13a.76.76,0,0,1,0,.11C8.58,6.86,8.61,7,8.77,7Zm3.87-.44a.47.47,0,0,1,.17.35c0,.06,0,.23-.14.27a.47.47,0,0,1,0-.09s0-.23,0-.25S12.65,6.63,12.64,6.53Zm-.05-.38s0,0,.07,0,.29.26.29.35,0,0,0,.06,0,0,0,0l-.06,0Zm0,1.14a.12.12,0,0,0,.09,0h0a.27.27,0,0,0,.15-.05.12.12,0,0,0,.11.05c.12,0,.19-.07.27-.18l0,0a.14.14,0,0,0,.14,0,.33.33,0,0,0,.1-.24l.15,0a.24.24,0,0,0,.18-.06.18.18,0,0,0,.11.05l0,0a.55.55,0,0,0,.37.2A.29.29,0,0,0,14.56,7a.34.34,0,0,0,.07-.22l.06,0a2.9,2.9,0,0,0,1,.54h0a.17.17,0,0,0,.11,0,1.08,1.08,0,0,0,.51.25h-.06l-.5-.09a.46.46,0,0,0-.38.11,1.12,1.12,0,0,0-.42.7.77.77,0,0,0,.2.43h0a3.41,3.41,0,0,1-.69-.15,3.13,3.13,0,0,0-.82-.16,1.76,1.76,0,0,0-.31,0h-.08a.09.09,0,0,0,0-.07l0,0,0,0,0,0a.17.17,0,0,0-.06.1H13l0,0v0s0,0,0,0v-.1l-.07.05c-.09.08-.12.11-.12.15a.18.18,0,0,0,0,.06h0l0,0h0a.13.13,0,0,0,0-.11l0,0,0,0-.05.09L12.4,8.4v0a1,1,0,0,0,.05-.22.73.73,0,0,0-.07-.29.36.36,0,0,1-.05-.19.71.71,0,0,1,.06-.23s0,0,0,0h.05A.15.15,0,0,0,12.61,7.29Zm.7-2.19c.09,0,.39,0,.39.23a.12.12,0,0,1,0,.08.45.45,0,0,0-.23-.13c-.05,0-.13,0-.17,0s0-.09,0-.12ZM13.23,5s0,0,0-.06h.09c.08,0,.25,0,.3.14V5.1h-.05c-.09,0-.23-.1-.35-.1S13.23,5,13.23,5Zm.67,1.16a.48.48,0,0,1,.25.42.16.16,0,0,1-.09.16h0v0l0,0h0s0,0,0,0,0-.18,0-.2A1.06,1.06,0,0,0,13.9,6.12ZM14,5.86c-.1,0-.06-.06-.23-.15s-.25-.09-.39-.15a.41.41,0,0,1,.16,0c.15,0,.47.09.54.3C14.06,5.84,14.05,5.86,14,5.86Zm-.2.53c0,.05,0,.15-.07.15l0,0c0-.11-.14-.3-.14-.36s0,0,0,0C13.78,6.19,13.83,6.27,13.83,6.39Zm-.58-.78c.13,0,.51.16.51.36,0,0,0,.08,0,.08a2.3,2.3,0,0,1-.51-.44Zm.24.62a.22.22,0,0,1-.07.2c-.12-.09-.07-.23-.12-.36s-.12-.16-.15-.25h0C13.37,5.82,13.49,6.18,13.49,6.23Zm-.17.52s0,.12-.08.13-.12-.25-.12-.31,0,0,0-.05A.23.23,0,0,1,13.32,6.75Zm-.15-.48a.59.59,0,0,1-.05.19A2.06,2.06,0,0,1,13,6,.26.26,0,0,1,13.17,6.27ZM13,6.69a.14.14,0,0,1,.12.13V7l-.05,0C13,7,13,6.79,13,6.71Zm1.14-.41h0a.47.47,0,0,1,.24.41c0,.07,0,.18-.12.18s-.05,0-.12,0a.24.24,0,0,0,.09-.21A.93.93,0,0,0,14.16,6.28ZM17.07,7.7h.07c-.24.35-.48.52-.75.52a1.73,1.73,0,0,1-.6-.16l-.08,0h0L15.52,8h0a.68.68,0,0,0-.3.06l-.16.1a1.1,1.1,0,0,1,.38-.56.37.37,0,0,1,.31-.1l.43.09h.15a.38.38,0,0,0,.17,0,1.12,1.12,0,0,0,.26-.27v.29a.45.45,0,0,1,0,.11v0Zm-.26-.09v0h0a.08.08,0,0,1,0,0h.05l.16.05Zm.4.09h0l0,0,.05-.08h0a1.1,1.1,0,0,0,.52.17A.5.5,0,0,0,18,7.74l.25.11h0l-.16.06a2.51,2.51,0,0,0-.58.26.29.29,0,0,0-.1.18.35.35,0,0,1-.12.21c-.42.3-.84.63-1.25.95l-.69.54h0a.18.18,0,0,1,0-.05h0l0-.43a.62.62,0,0,0,.39-.17,1.44,1.44,0,0,0,.39-.92c0-.12-.12-.24-.25-.33a1.81,1.81,0,0,0,.59.14,1,1,0,0,0,.84-.58Zm1.11.21h0l.08,0-1,.65,0,.25,0,0,.07.83V10l-1.17.79c0-.12,0-.33,0-.49v-.16L16.5,10c.21-.2.51-.56.51-.56L17,9.35s-.3.35-.51.55a.3.3,0,0,1-.08.08c0-.17,0-.33,0-.39l1-.78-.05-.06-2,1.48s0,0,0-.05l.74-.58c.41-.31.83-.64,1.26-.95a.44.44,0,0,0,.15-.26.18.18,0,0,1,.06-.13A2.11,2.11,0,0,1,18.07,8l.08,0h0l.15-.06ZM15.59,11v0c0-.06,0-.12,0-.18h.6L15.9,11Zm.18.09-.22.15s0-.1,0-.15Zm.5-1.2a.66.66,0,0,1,0,.14l-.09.07h-.57l.27-.2ZM16,9.83l.25-.18s0,.11,0,.18Zm-.37.61c0-.08,0-.16,0-.21h.47l-.25.21Zm.1.08-.1.09v-.09Zm-.11.21h0l.25-.21h.4c0,.08,0,.16,0,.21Zm.36-.29.24-.21h.06v.21Zm-.51.29h-.12c0-.11,0-.25,0-.39l.15-.11h.06c0,.11,0,.28,0,.45Zm.06.09c0,.06,0,.12,0,.17s0,.28-.06.34h-.11c0-.16,0-.3,0-.4a.65.65,0,0,0,.15-.11Zm1,.3a1.41,1.41,0,0,0,0,.21h-.59l.32-.21ZM16.34,11l.15-.1V11Zm.13.39h0l-.28.22h-.46a1.27,1.27,0,0,1,0-.2l0,0Zm-.13.22.12-.1v.1Zm.11.08a1.48,1.48,0,0,1,0,.21h-.65a2.06,2.06,0,0,0,.42-.21Zm-.41,0a2.49,2.49,0,0,1-.33.16c0-.05,0-.11,0-.16Zm.39.3c0,.07,0,.14,0,.22h-.74c0-.08,0-.15,0-.22Zm0,.3c0,.07,0,.14,0,.21h-.74a1.49,1.49,0,0,0,0-.21Zm0,.3c0,.07,0,.15,0,.22h-.74a1.64,1.64,0,0,0,0-.22Zm-2.13,4.12-.19-.14a.18.18,0,0,1,0-.07h.79a2,2,0,0,0-.16.21Zm.42.09-.09.11-.2-.11Zm-2-.55,0-.22L12.42,16l-.16.11L12.18,16h.09l.32-.14.37.27.14.27.15-.05q-.23.23-.45.42l0-.05,0-.28Zm-.29.5v0c0-.05,0-.09,0-.13s0-.09,0-.13l0-.05h-.14V16.3h-.16v.15h-.19V16.3H11.7v.15h-.19V16.3h-.16v.15h-.09v0a.78.78,0,0,0,0,.14l-.16.16h-.26l.16.27.23.14h1.06l.18-.1a4.27,4.27,0,0,1-.73.52,6.31,6.31,0,0,1-1.11-.85l.07-.11.22,0,.06-.17.11-.15h.21l.14-.13.71-.08.12.14.2-.13.12,0,0,.19.16.17,0,.28.06.09-.2.17.07-.24Zm-.07,0v0h0v0Zm-.07-.15h-.15a.13.13,0,0,1,0-.1h.15a.07.07,0,0,0,0,.05A.09.09,0,0,0,12.2,16.66Zm-.34.18v0h.19v0H12v.06h0v-.06Zm0-.18h-.14a.13.13,0,0,1,0-.1h.14v.1Zm-.34.18v0h.19v0h-.09v.06h0v-.06Zm0-.18h-.15v-.1h.15v.1Zm-.25.15h.09v0h-.08l0-.06,0,0h0ZM12.41,19l-.07,0,.07,0a.69.69,0,0,1,.18,0,.41.41,0,0,1,0,.1Zm.24.09a0,0,0,0,1,0,0l0,0Zm-.3,0h0l.08,0h-.42c0-.15,0-.33,0-.51h.14a2,2,0,0,0,0,.25v0a.23.23,0,0,0,.07.13h0ZM12,18.51c0-.17,0-.35,0-.52h.09c0,.18,0,.36.08.52Zm-.34-.82h.2c0,.07,0,.14,0,.22H11.5c0-.08,0-.15,0-.22Zm-.15-.09Zm.37.39c0,.07,0,.14,0,.21h-.42c0-.07,0-.14,0-.21Zm0,.3c0,.08,0,.15,0,.22h-.46c0-.07,0-.14,0-.22Zm0,.31c0,.07,0,.14,0,.21h-.5c0-.07,0-.14,0-.21Zm0,.29c0,.08,0,.15,0,.22h-.55c0-.07,0-.14,0-.22Zm0-1.32.06,0c0,.08,0,.22,0,.38H12C12,17.79,12,17.67,12,17.57Zm0,1.62a1.27,1.27,0,0,0,0,.22h-.62c0-.05,0-.12,0-.22ZM9.14,16.14c-.08-.12-.18-.28-.29-.47l.08,0h.46q.21.26.45.51Zm.66.09c-.09.07-.21.19-.37.31l-.17-.23-.06-.08ZM7.91,13.52a.36.36,0,0,0,0,.11l-.22-.11Zm-.36-.09-.13-.07-.17-.14h.61l0,.21Zm.32-.81H8.2c0,.13.06.31.11.52H7.93Zm-.23-4a1.65,1.65,0,0,0,.42,0h.1a2.6,2.6,0,0,0,.7-.13,3.36,3.36,0,0,1,.86-.15,2.22,2.22,0,0,1,.6.11h0a1.48,1.48,0,0,1,.53.31c0,.09.11.52.25.52s.05-.1.05-.1a.9.9,0,0,0,0-.24l.08.05a0,0,0,0,0,0,0c0,.06.08.16.12.24l-.17.07-.41-.16a1.86,1.86,0,0,0-.52-.07H9.92a2,2,0,0,0-.69.09l-.12,0a3,3,0,0,1-.37.11,3.33,3.33,0,0,1-.47.1H8.21a.51.51,0,0,1-.47-.12,1.27,1.27,0,0,1-.41-.87v0A.74.74,0,0,0,7.64,8.65ZM7.37,8.4a1.18,1.18,0,0,1,.2-.17L7.81,8A.94.94,0,0,1,8,8.09a.76.76,0,0,1,.19.11h0v0a.91.91,0,0,1-.16.4,2,2,0,0,1-.41,0A.59.59,0,0,1,7.37,8.4Zm3-1.75a.39.39,0,0,1,.08.29.6.6,0,0,1-.07.34h0A1.16,1.16,0,0,1,10.31,7,1.55,1.55,0,0,1,10.37,6.65Zm-.07,0h0s0-.08,0-.1A1.27,1.27,0,0,1,10.42,6a.24.24,0,0,1,0,.13A1.1,1.1,0,0,1,10.3,6.62Zm.17.73a.62.62,0,0,1,.09.39s0,.15,0,.24h0a.22.22,0,0,1-.07-.09,1.93,1.93,0,0,1,0-.29A.39.39,0,0,1,10.47,7.35Zm.21-.46V7c-.15-.13-.15-.31-.2-.46V6.44A.65.65,0,0,1,10.68,6.89Zm-.16-1a.73.73,0,0,1,0-.16.56.56,0,0,1,.1.38.58.58,0,0,1,0,.23A.86.86,0,0,1,10.52,5.92ZM11.6,8.18s-.08-.28-.08-.36a.82.82,0,0,1,.06-.28,1.76,1.76,0,0,1,.08.37A.51.51,0,0,1,11.6,8.18Zm.07,0s.06.18.06.24a.68.68,0,0,1-.1.4.79.79,0,0,1,0-.22A1.08,1.08,0,0,1,11.67,8.17Zm.16,1.09h0l0,0a2.19,2.19,0,0,0,.3.16h0l0,0H11.3l.13-.07Zm0-.73a.3.3,0,0,1,0-.11.8.8,0,0,1,.13.47,1,1,0,0,1,0,.15A1,1,0,0,1,11.79,8.53Zm1.11.75c0,.06.11.11.15.11h0l0,0a0,0,0,0,0,0,0,.09.09,0,0,0,0-.06v0h.26a1.55,1.55,0,0,1,.56.06l.28.11a1.84,1.84,0,0,1-.83.19l-.31,0H13c-.11,0-.21,0-.32-.06l-.05,0-.19-.07.41-.12h0Zm-.5.24.12,0h0l.24.06h0a2.41,2.41,0,0,0,.53,0h0a1.85,1.85,0,0,0,.78-.16h.54l.5.06,0,.18H12.13l.1-.16-.28,0-.08-.12Zm2.82.57h-.81a.25.25,0,0,0-.19-.09h0a.24.24,0,0,0-.17.09H12.25a.56.56,0,0,0-.13-.24h3.09V10h0A.28.28,0,0,1,15.22,10.09Zm-1.47,5.4,0,.16h-.18L13,16l.18.12,0,.19-.08,0L13,16.08l-.42-.31-.35.16-1,0-.36-.24-.84-.17-.38-.27-.44-.65h5.32a4.13,4.13,0,0,1-.22.42,4,4,0,0,1-.33.46Zm.2.1-.09.11,0-.12ZM8.21,10.41a1.69,1.69,0,0,1,0-.23h.72a.21.21,0,0,0,0,.13.19.19,0,0,0,0,.1H8.21Zm.7.09a.43.43,0,0,0,0,.24H8.19c0-.07,0-.15,0-.24Zm.38-1a1.93,1.93,0,0,0,.65.16h.42a2.93,2.93,0,0,0,.72-.17h.19l.06.23H8.24s0,0,0-.09,0-.05,0-.08l.37-.07Zm-.35-.08.1,0,.06,0Zm1,.15a2.06,2.06,0,0,1-.77-.22,2,2,0,0,1,.76-.11h.17A3.36,3.36,0,0,1,9.93,9.59Zm.24,0h-.11V9.53h0S10.15,9.56,10.17,9.6Zm.13-.06h.09a.11.11,0,0,1,0,.06h-.09A.14.14,0,0,0,10.3,9.54Zm.19,0s0,0,.08,0,0,.06.07.1h-.1A.5.5,0,0,0,10.49,9.5Zm.22,0a1.67,1.67,0,0,0,0-.18c.1,0,.16,0,.16.1v0Zm.95.4a.11.11,0,0,1-.11.11.09.09,0,0,1-.07,0,.63.63,0,0,1,.09-.2A.13.13,0,0,1,11.66,9.94Zm-.06-.29,0,0v0Zm.39.19a.55.55,0,0,1,.21.41.53.53,0,0,1-.38.51.8.8,0,0,0,.16-.51.72.72,0,0,0-.15-.49h0l.09.05Zm0-.11.09,0,0,0h0Zm.3.44H14a.08.08,0,0,0,0,0,.37.37,0,0,0-.17.1.21.21,0,0,0-.06.1H12.26a.78.78,0,0,0,0-.16A.25.25,0,0,0,12.27,10.17Zm1.92.15a.33.33,0,0,1,.13.07l0,0a.25.25,0,0,1,.08.12.42.42,0,0,1,0,.3l0,.06v0a.41.41,0,0,0-.05-.09l0-.06a.71.71,0,0,0-.12-.13.51.51,0,0,0-.31-.11H13.8a.21.21,0,0,1,0-.11A.31.31,0,0,1,14.19,10.32ZM14,10.2a.16.16,0,0,1,.15-.11.18.18,0,0,1,.18.07.21.21,0,0,1,.05.12l0,.06a.34.34,0,0,0-.17-.11l-.11,0H14Zm-3,.21H9.69a.21.21,0,0,0-.06-.1.32.32,0,0,0-.17-.1.08.08,0,0,0,0,0h1.62a.25.25,0,0,0,0,.08A.78.78,0,0,0,11.08,10.41Zm.44-.65a.67.67,0,0,0-.16.49.74.74,0,0,0,.17.51.52.52,0,0,1-.38-.51A.5.5,0,0,1,11.52,9.76Zm-.13-.1.06,0h0Zm.23.46h0a.25.25,0,0,0,.14.08.1.1,0,0,1,0,.08.12.12,0,0,1-.12.12.12.12,0,0,1-.11-.08.18.18,0,0,0,0-.1A.29.29,0,0,0,11.62,10.12Zm2.43,1.09s0,0,0,0a.5.5,0,0,0,0-.12A1.16,1.16,0,0,0,14,10.9l0,0a.56.56,0,0,0,0-.08l0,0-.06-.06,0,0-.06-.05h0l.08,0a.22.22,0,0,1,.11,0,.42.42,0,0,1,.25.09.6.6,0,0,1,.11.12l0,0,.06.11a0,0,0,0,1,0,0,.44.44,0,0,1-.09.42.31.31,0,0,1-.22.12v0l0,0s0-.05,0-.07a.08.08,0,0,0,0,0Zm-.46-.14s0,0,0-.06l0-.09s0,0,0-.06a.16.16,0,0,0,0-.07l0-.06,0-.05,0,0h.08a.38.38,0,0,1,.16,0h0a.21.21,0,0,1,.1.06l0,0,.07.08,0,.05a.87.87,0,0,1,.07.17.61.61,0,0,1,0,.11v0s0,0,0,.07,0,.05,0,.08v0l0,0a.14.14,0,0,1,0,.06.76.76,0,0,1-.48.29h0l0,0h0a.36.36,0,0,0,.07-.1h0a.54.54,0,0,0,.05-.11.06.06,0,0,0,0,0l0-.1a.66.66,0,0,0,0-.15A.76.76,0,0,0,13.59,11.07Zm0-.51-.16,0-.18,0A.58.58,0,0,0,13,10.5h.65Zm-.34.11.08.07,0,0a.83.83,0,0,1,.08.12l0,0s0,.08,0,.11,0,0,0,.05a.77.77,0,0,1,0,.15.68.68,0,0,1,0,.15s0,0,0,0l0,.11,0,0-.08.11,0,0a.46.46,0,0,1-.07.07.54.54,0,0,1-.28.11l0,0,.1-.05h0a.47.47,0,0,0,.1-.1h0a.68.68,0,0,0,.12-.3h0a.5.5,0,0,0,0-.12.55.55,0,0,0-.46-.6.55.55,0,0,0-.47.6.43.43,0,0,0,0,.11l0,0a.49.49,0,0,1,0-.12.6.6,0,0,1,.55-.64A.55.55,0,0,1,13.25,10.67Zm-.63,1s0,0,0,0v0s0,0,0,0v0h0l0,0h0l0,0h.08a.19.19,0,0,1,.19.19.16.16,0,0,1,0,.09h0a.13.13,0,0,1-.07.06h-.08a.17.17,0,0,1-.14-.07s0,0,0,0A.14.14,0,0,0,12.62,11.68Zm0-.18,0,0h0a.71.71,0,0,1-.05-.26c0-.29.17-.52.38-.52a.4.4,0,0,1,.34.31.36.36,0,0,0-.23-.13.44.44,0,0,0-.42.44A.61.61,0,0,0,12.6,11.5Zm-.56.18a.06.06,0,0,1,0,0h-.14v-.24H12v0A.23.23,0,0,0,12,11.68Zm0-.29h-.1v-.06a.71.71,0,0,0,.27-.18h.18s0,0,0,.07,0,0,0,.07a.23.23,0,0,0-.11,0A.29.29,0,0,0,12,11.39Zm.24,0a.17.17,0,0,1,.18.16h-.08a.31.31,0,0,0-.13,0l0,0-.07,0,0,0a.18.18,0,0,1,0-.1A.17.17,0,0,1,12.23,11.35Zm-.09.33.06,0,0,0,.11,0,.09,0h0l0,.05,0,0h0a.25.25,0,0,1,0,.07c0,.1-.11.17-.23.17s-.22-.07-.22-.17A.14.14,0,0,1,12.14,11.68Zm.64-.26-.08,0h0v-.08c0-.21.17-.37.33-.36a.33.33,0,0,1,.26.36,0,0,0,0,1,0,0v0l0,.1,0,0,0,0,0,.05a.27.27,0,0,1-.08.07v0A.28.28,0,0,0,12.78,11.42Zm-.29-.68h-.11a.8.8,0,0,0,0-.15l0-.09h.45A.65.65,0,0,0,12.49,10.74Zm-.05.09a.63.63,0,0,0-.09.24h-.12a1.08,1.08,0,0,0,.12-.24Zm-.31.24a.74.74,0,0,1-.3.19h0v0a2.9,2.9,0,0,1,0,.52l-.09-.07c0-.05,0-.17,0-.3h0v-.25a.76.76,0,0,0-.1-.36h0a.59.59,0,0,1,.14.34h.09a1,1,0,0,1,.16-.33,1,1,0,0,1,.28-.21A1.47,1.47,0,0,1,12.13,11.07Zm-.66.63c0-.07-.08-.12-.18-.13v-.06h0a0,0,0,0,0,0,0h.37c0,.1,0,.19,0,.24h-.15v0Zm-.25,0,0,0c.08,0,.12,0,.12,0s0,0-.09.05h-.07v-.08ZM11,11.46h0a.18.18,0,0,1,.16.06h0l-.05,0H11v-.09Zm0-.63h0a.73.73,0,0,0,.09.24h0A.85.85,0,0,0,11,10.83Zm.18.56h-.1a.78.78,0,0,0,0-.16.2.2,0,0,0,0-.07h.08l.06.08a.54.54,0,0,0,.22.16Zm.12-.21a.88.88,0,0,1-.18-.35.94.94,0,0,1,.31.2,1.87,1.87,0,0,1,.24.31l0,0A.59.59,0,0,1,11.28,11.18Zm.34-.11h-.07a.35.35,0,0,0-.08-.1.73.73,0,0,0-.18-.14h.17l.07,0A.66.66,0,0,1,11.62,11.07Zm0-.35a.31.31,0,0,0,.11-.09l0,0a.35.35,0,0,1-.1.09A.22.22,0,0,1,11.61,10.72Zm0,.43v0l0,0Zm.19-.1a1.35,1.35,0,0,0-.08-.19l.14,0H12A.8.8,0,0,0,11.83,11.05Zm-.06-.52h0s0,0,0-.06a.22.22,0,0,0,.14-.09h0a1,1,0,0,1-.06.22A.1.1,0,0,1,11.77,10.53Zm-.13-.07a.14.14,0,0,1,0,.07.11.11,0,0,1-.11.11.55.55,0,0,1-.09-.24l.08,0A.21.21,0,0,0,11.64,10.46Zm-.19-.14v-.07a.53.53,0,0,1,0-.13h.07a.19.19,0,0,1,0,.08A.12.12,0,0,1,11.45,10.32Zm-.15.42H11v0h-.09a.65.65,0,0,0-.41-.24h.61A.55.55,0,0,0,11.3,10.74Zm-.92-.24a.48.48,0,0,0-.21.07l-.19,0-.16,0-.1-.06Zm-.56.16a.41.41,0,0,1,.16,0h.09l0,0,0,.06,0,0,0,.08,0,.06a.69.69,0,0,1,0,.1.11.11,0,0,1,0,.05.76.76,0,0,0,0,.15.81.81,0,0,0,0,.16.08.08,0,0,0,0,0s0,.06,0,.09a.25.25,0,0,0,0,.07.13.13,0,0,0,0,.05.43.43,0,0,0,0,.07l0,0,0,0h0a.72.72,0,0,1-.47-.29h0a.6.6,0,0,1-.06-.19v-.11l0-.11a.67.67,0,0,1,.08-.17s0,0,0-.05l.07-.08,0,0a.27.27,0,0,1,.1-.06Zm.15.9s0,0,0,0a.36.36,0,0,1,0-.11v0a.61.61,0,0,1,0-.31.09.09,0,0,0,0-.05.47.47,0,0,1,.05-.1s0,0,0,0a.83.83,0,0,1,.08-.12l0,0a.27.27,0,0,1,.08-.07.52.52,0,0,1,.28-.09.6.6,0,0,1,.54.64.81.81,0,0,1,0,.16h0s0-.08,0-.12a.55.55,0,0,0-.46-.6.54.54,0,0,0-.46.6.56.56,0,0,0,.39.59v0a.51.51,0,0,1-.3-.1l-.1-.09v0Zm.81-.39a.29.29,0,0,0-.23-.08c-.14,0-.25.06-.25.14h0v.07a0,0,0,0,0,0,0l0,0h0a.14.14,0,0,0,0,.06v.07a.11.11,0,0,0,0,0s0,0,0,0h0a0,0,0,0,1,0,0v.07a.58.58,0,0,1-.16-.41c0-.29.17-.52.38-.52s.35.21.37.46A.35.35,0,0,0,10.78,11.17Zm.09.13h-.08s0,0,0,0v0S10.87,11.29,10.87,11.3Zm-.32,0h-.07c-.06,0-.09,0-.09,0s.06-.05.16-.05.16,0,.16.05h0A.21.21,0,0,1,10.55,11.29Zm.12.13s-.06.05-.16.05-.17,0-.17-.05h0l.08,0h.22Zm-.23.22,0,0h0l.11,0h0l-.1,0Zm.13.1.11,0h0v0a.09.09,0,0,0,0,.05h0c-.1,0-.16,0-.16-.05S10.54,11.75,10.57,11.74Zm.17-.2h0l0,0h.1l0,0h0l0,0h0s-.06.06-.16.06Zm.09.15h.09l0,0h.17s-.06.06-.16.06H10.9l-.08,0Zm.24.19h0Zm.26,0v0a.17.17,0,0,0,.13-.08h.18l.22.17V11.9a.41.41,0,0,0,0-.09H12a.3.3,0,0,0,.3.22.31.31,0,0,0,.27-.13.29.29,0,0,0,.18.07l.11,0H13a.5.5,0,0,0,.31-.1l.1,0h0l.19-.06h1.61c0,.08,0,.16,0,.24h-4.1C11.24,12,11.33,12,11.33,11.91Zm2.45-.19a.69.69,0,0,0,.17-.17.57.57,0,0,0,.27-.07h1c0,.08,0,.16,0,.24Zm.53-.33a.6.6,0,0,0,.11-.24h.84a1.93,1.93,0,0,1,0,.24Zm-1.87-.89-.07,0a2,2,0,0,0-.33.21h0a.57.57,0,0,0,.19-.24Zm-.64-.84,0,0,0,.06Zm-.09-.05-.07-.09h.18Zm0,.13a.46.46,0,0,1,.21.35l-.06,0a.11.11,0,0,1-.1-.07.19.19,0,0,0,0-.1.19.19,0,0,0-.11-.18Zm-.15-.12-.22-.1h.28Zm-.3.23a.56.56,0,0,0-.13.24H9.4A.24.24,0,0,0,9.23,10h0a.25.25,0,0,0-.2.09H8.22c0-.05,0-.12,0-.24Zm-1.85.35H9.3l-.11,0a.59.59,0,0,0-.17.1.08.08,0,0,1,0-.05.18.18,0,0,1,0-.12.22.22,0,0,1,.16-.07h0C9.32,10.1,9.36,10.15,9.37,10.2ZM9,10.53a.36.36,0,0,1,.08-.12l0,0a.33.33,0,0,1,.13-.07l.09,0h.07a.29.29,0,0,1,.19.07.37.37,0,0,1,0,.11H9.55a.47.47,0,0,0-.31.11l-.13.13,0,0a.54.54,0,0,0-.05.11l0,0,0-.06A.4.4,0,0,1,9,10.53Zm.11.39v0l.07-.11v0a.6.6,0,0,1,.11-.12.43.43,0,0,1,.26-.09.18.18,0,0,1,.1,0,.11.11,0,0,1,.08,0h0l-.08.05,0,0,0,.06,0,0a.25.25,0,0,1,0,.07l0,.05a1.16,1.16,0,0,0-.06.15.5.5,0,0,0,0,.12v0a.28.28,0,0,0,0,.09,0,0,0,0,1,0,0,.24.24,0,0,0,0,.08.06.06,0,0,0,0,0v0a.33.33,0,0,1-.23-.12A.44.44,0,0,1,9.1,10.92Zm.1.56a.51.51,0,0,0,.26.07.73.73,0,0,0,.18.17H8.2a1.93,1.93,0,0,0,0-.24Zm.59.33h0l.19.06H10l.09,0a.53.53,0,0,0,.32.1h.08a.41.41,0,0,0,.16,0,.33.33,0,0,0,.15,0,.28.28,0,0,0,.21.1H8.22a1.93,1.93,0,0,1,0-.24Zm5.41.32q0,.18,0,.3a10.46,10.46,0,0,1-.57,2.12H11.87l.16-.22,0-.23.19,0a.52.52,0,0,0,.13.23.43.43,0,0,0,.24.06.86.86,0,0,0,.19,0h0l.16-.15L12.62,14a8,8,0,0,0-.16-1.2c-.09-.43-.25-.63-.52-.63a1.37,1.37,0,0,0-.45.12,2.41,2.41,0,0,0-.58.33h0l-.06.45H11l-.19.69h0a.94.94,0,0,0,.47.21l-.09.35.16.24H8.83a10.46,10.46,0,0,1-.57-2.12q0-.12,0-.3ZM11.49,13.7h.11l0,.85h0l-.18-.25Zm-.14.18a1.58,1.58,0,0,1-.37-.14l.42,0Zm.2-.27c-.22,0-.49,0-.61,0l.17-.6a4.42,4.42,0,0,1,.75-.41c.2-.06.31.25.31.25l.08,0s-.14-.38-.41-.3a4.43,4.43,0,0,0-.78.42h-.13l.05-.32a2,2,0,0,1,.55-.31,1.2,1.2,0,0,1,.41-.11c.14,0,.33,0,.43.55A6.34,6.34,0,0,1,12.53,14v0l.25.24-.08.07-.16,0a.3.3,0,0,1-.18-.05,1,1,0,0,1-.19-.47h0s-.09-.15-.4-.18A.72.72,0,0,0,11.55,13.61Zm.59.42L12,14l-.06-.26a.53.53,0,0,1,.19.1A.76.76,0,0,0,12.14,14Zm-.39-.32h.06l.13.59-.18.24h0V13.7Zm2.47,1.67a1.21,1.21,0,0,0,.16.16h-.27Zm.06-.07.14-.22,0-.06h.47c-.1.18-.18.35-.27.51h-.13A1.09,1.09,0,0,1,14.28,15.31Zm.23-.37c.08-.16.16-.34.23-.52h.44c-.06.18-.14.36-.21.52Zm.26-.6a3.81,3.81,0,0,0,.15-.44,1,1,0,0,0,.35-.08h.1a2.8,2.8,0,0,1-.1.37.88.88,0,0,0,0,.15Zm.49-.6H15c0-.18.09-.36.13-.52h.38c0,.16-.05.31-.08.46Zm-.14-.6c.05-.21.08-.39.1-.52h.34l-.06.52Zm.4.38h.2l-.22.12S15.51,13.56,15.52,13.52Zm0-.09a1.3,1.3,0,0,0,0-.21h.6l-.17.14-.12.07Zm0-.9h-.33a.44.44,0,0,0,0-.09,2.43,2.43,0,0,0,0-.35l.26-.07h.06C15.6,12.18,15.59,12.36,15.57,12.53Zm-.31-1.46h-.83s0-.06,0-.09a.25.25,0,0,0,.11-.12,0,0,0,0,1,0,0h.73S15.27,11,15.26,11.07Zm-.71-.33a.75.75,0,0,0,0-.24h.74c0,.09,0,.17,0,.24Zm-.09-.33h0a.19.19,0,0,0,.05-.1.21.21,0,0,0,0-.13h.75c0,.08,0,.16,0,.24Zm-3-2.86a1.54,1.54,0,0,1-.11-.48.47.47,0,0,1,0-.15.76.76,0,0,1,.13.48A.24.24,0,0,1,11.47,7.55Zm-.05,1.73-.09,0a.51.51,0,0,1-.12-.2A.59.59,0,0,1,11.42,9.28Zm-.11-2.35c-.13-.06-.23-.42-.23-.54a.14.14,0,0,1,0-.06.86.86,0,0,1,.22.51A.41.41,0,0,1,11.31,6.93Zm0,2v0h0c-.09,0-.35-.42-.35-.45V8.44C11,8.46,11.28,8.82,11.27,8.89ZM10.68,7.8a1.13,1.13,0,0,1,.3.48A1.26,1.26,0,0,1,10.68,7.8Zm.1.68v.16a.79.79,0,0,1-.16-.43V8.06A1.06,1.06,0,0,1,10.78,8.48Zm.11.22a1.11,1.11,0,0,1,.24.5v.1c-.2,0-.21-.33-.26-.5ZM11,6.39s0,0,0,0-.25-.41-.27-.52v0c.08,0,.29.42.29.52Zm-.21,1.2v.09a1,1,0,0,1-.28-.53s0,0,0-.05A1.44,1.44,0,0,1,10.81,7.59ZM8.18,10.85v0h.69a0,0,0,0,0,0,0A.25.25,0,0,0,9,11a.28.28,0,0,0,0,.09H8.18Zm.82.3a.48.48,0,0,0,.1.24H8.19a1.93,1.93,0,0,0,0-.24Zm-.67,2.07c0,.16.08.34.13.52H8.17L8,13.68c0-.15,0-.3-.08-.46Zm-.17.6a1,1,0,0,0,.35.08c0,.15.09.29.14.44H8.21a.88.88,0,0,1-.05-.15c0-.11-.07-.23-.11-.37Zm.53.6a4.09,4.09,0,0,0,.23.52H8.46c-.07-.16-.15-.34-.22-.52ZM9,15a.21.21,0,0,0,0,.06l.14.22a1.34,1.34,0,0,1-.25.23H8.77Q8.64,15.3,8.5,15Zm.23.35.12.16H9.05Zm-.12-.33a2.74,2.74,0,0,1-.21-.42h.26l.49.71.41.29.83.17.38.25.54,0-.41,0-.13.12H11l-.15.2,0,.13-.22,0h0l-.07.11A9,9,0,0,1,9.08,15.05Zm4.08.93.45-.25h.22l-.52.56L13.26,16Zm.87-.35h.47l.08,0a4.94,4.94,0,0,1-.3.47h-.7A5.14,5.14,0,0,0,14,15.63Zm.19.6a.56.56,0,0,0-.05.08l-.18.23-.36-.31Zm0,.21a.24.24,0,0,1,.06-.08.51.51,0,0,1,.09-.13h.78l-.13.18,0,0Zm.21-.3.14-.21h.78l-.14.21Zm.19-.3.07-.12a1.39,1.39,0,0,0,.53.1h.2l0,0Zm.12-.2h.78a.35.35,0,0,1-.05.08A1.39,1.39,0,0,1,14.7,15.64Zm.06-.1c0-.07.07-.14.12-.22h.77l-.12.22Zm.16-.3L15,15h.77l-.1.21Zm.15-.3.09-.21h.76l-.09.21Zm.13-.3c0-.07.05-.14.08-.22H16c0,.08,0,.15-.08.22Zm.11-.3,0-.12,0-.1h.76a1.89,1.89,0,0,1-.06.18s0,0,0,0Zm.1-.3c0-.07,0-.14.05-.22h.75c0,.08,0,.15-.05.22Zm.08-.3.4-.22h.38c0,.08,0,.15-.05.22Zm.54-.31h0a1.16,1.16,0,0,0,.25-.2h0l0,.21Zm.24-.29h-.69l0-.22h.74c0,.05,0,.1,0,.14Zm-.65-1.23-.08,0h-.23c0-.07,0-.14,0-.21l.33-.22C15.64,11.62,15.63,11.76,15.62,11.91Zm.32-3.5a.59.59,0,0,1-.34.2,2,2,0,0,1-.34,0,.1.1,0,0,0,0-.05A.94.94,0,0,1,15,8.24a1,1,0,0,1,.21-.14.49.49,0,0,1,.25,0l.13.09A1.16,1.16,0,0,1,15.94,8.41Zm-3.09.06h0v0l0,0S12.84,8.46,12.85,8.47Zm-.25.1h0v0Zm-.15.12s0,0-.06,0l-.32-.2a.19.19,0,0,1,.11-.12Zm-.15.08L12,9c0-.11,0-.25,0-.36Zm.25-.08.07.07,0-.1h.08l.08,0,.12,0h0l.12,0h0l.07,0,.16,0h.05l.3,0a3.4,3.4,0,0,1,.8.15,3.27,3.27,0,0,0,.69.15h.24l.27,0A.75.75,0,0,0,16,8.51a1.43,1.43,0,0,1-.37.84.46.46,0,0,1-.37.14h-.05a5.26,5.26,0,0,1-.86-.13l-.4-.15h0a2,2,0,0,0-.57-.06h-.18l-.25,0h0a4.19,4.19,0,0,0-.64.19,2.09,2.09,0,0,1-.36-.19h0A2.23,2.23,0,0,1,12.55,8.69ZM12,8.32h0c-.11,0-.18-.35-.22-.49l0-.09a1.31,1.31,0,0,1,.23.49Zm-.1-.67a1.29,1.29,0,0,1-.3-.5V7.1a1.29,1.29,0,0,1,.3.48ZM11.67,7h0a2.25,2.25,0,0,1-.33-.46v0a1.27,1.27,0,0,1,.37.45Zm-.23-.57h0c-.13,0-.37-.35-.4-.46s.43.33.43.41Zm-.37-.54s-.46-.23-.46-.33.4.14.53.32Zm-.67-.27a.34.34,0,0,1-.08-.16c0-.08.16-.18.22-.18s.18,0,.18.1S10.35,5.41,10.4,5.61Zm0,.09c.06,0,0-.16.11-.18v.05a1.07,1.07,0,0,1-.28.51s0,0,0,0a2.21,2.21,0,0,1,.16-.4A.07.07,0,0,1,10.42,5.7ZM6,7.58H6l.18-.09.22-.11v0c0,.06,0,.13,0,.19Zm2.13,4.86,0,.09H7.86c0-.17,0-.35-.05-.51h.07l.26.07C8.15,12.23,8.16,12.35,8.17,12.44Zm-.35.48c0,.07,0,.14,0,.22H7.16l-.07-.08c0-.05,0-.09,0-.14Zm-.69.3a1.16,1.16,0,0,0,.25.2H7.15a1.52,1.52,0,0,1,0-.21Zm.41.3a3.6,3.6,0,0,0,.4.22H7.2c0-.07,0-.14,0-.22Zm.43.3A1.42,1.42,0,0,0,8,14H7.27a1.42,1.42,0,0,1,0-.22Zm.08.3a.3.3,0,0,0,0,.1l0,.12H7.35s0,0,0,0,0-.11,0-.18Zm.1.3c0,.08,0,.15.08.22H7.47a1.43,1.43,0,0,1-.08-.22Zm.12.31.09.21H7.6c0-.07-.06-.14-.1-.21Zm.13.3.11.21H7.74L7.63,15Zm.15.29.12.22H7.9l-.12-.22Zm.17.31h0a1.3,1.3,0,0,1-.73.08.35.35,0,0,0,0-.08Zm-.48.18a1.39,1.39,0,0,0,.53-.1.83.83,0,0,1,.07.13H8.07l0,0Zm.66.12.14.21H8.26a1.91,1.91,0,0,1-.14-.21Zm.2.3a1,1,0,0,1,.09.13l.06.08H8.46v0l-.14-.18Zm.21.3.06.07-.19.14H8.69l-.16-.21Zm-.27.3-.19.11a.65.65,0,0,1-.09-.11Zm1.6,2h0l-.19,0h-.34a8.41,8.41,0,0,0,.79-1.64l.4.31c-.08.53-.2,1.34-.22,1.41l0,0,0,.05a.45.45,0,0,0-.14-.07A2.16,2.16,0,0,0,10.64,18.8ZM11,19a0,0,0,0,1,0,0h0l-.11,0-.18.08.08-.23.12,0Zm.16.39h-.29c-.06,0-.19,0-.21-.08a.08.08,0,0,1,0-.07.93.93,0,0,1,.2-.1l.09,0h0c.09,0,.1-.09.13-.17l0,0c0-.1.18-1.09.22-1.39l.06,0c0,.6-.1,1.5-.13,1.79l-.07,0-.09,0Zm.13.06-.06.05,0,0v-.06Zm-.12.26h0a.22.22,0,0,1,0-.08s0,0,0,0,0,0,0,0a.32.32,0,0,0,.09-.08H12a0,0,0,0,0,0,0,.38.38,0,0,0,.09.09l0,0h0l0,.05Zm1-.23h.06s0,0,0,.07h0Zm.09.37a.78.78,0,0,1-.43.09h0c-.17,0-.42,0-.53-.14h1Zm.51-.58,0,.06a.84.84,0,0,1-.43.08h0l-.1,0h0c0-.05,0-.11,0-.19h.61A.21.21,0,0,1,12.71,19.27Zm.52-.51h-.58l-.27,0-.08,0v-.05a2.17,2.17,0,0,1-.06-.35h.84A2.75,2.75,0,0,0,13.23,18.76ZM13,18.39h-.8c0-.16-.05-.34-.07-.52h.63C12.84,18,12.92,18.22,13,18.39Zm-.38-.86c0,.08.07.17.1.26h-.61a3.11,3.11,0,0,0,0-.32l.28-.2h.17a1.38,1.38,0,0,0,.06.16Zm2,.26a3.71,3.71,0,0,1-1.9-.59l-.13-.07h0a.05.05,0,0,1,0,0H12.5v0h0a11.42,11.42,0,0,0,1-1,3.83,3.83,0,0,0,1.27.88,2.76,2.76,0,0,0,.71.09,2,2,0,0,0,.76-.13l.2-.09A2.53,2.53,0,0,1,14.61,17.79Zm3-7.83h0A.55.55,0,0,0,18,9.58l.59-.22.52-.19c-.13.17-.72.81-.81.92h-.39v0h0L18,11v1.68c0,.08,0,.44-.07.67s0,.22,0,.24a5.84,5.84,0,0,1-1.27,3.22l-.4.19a2.57,2.57,0,0,1-1.41,0L14.66,17c.05,0,.16-.19.39-.5.1-.14.26-.38.44-.68a2.45,2.45,0,0,0,.56-.18c1.31-.64,1.55-4.31,1.56-4.35h-.09s-.24,3.66-1.5,4.27a2,2,0,0,1-.47.16,8.3,8.3,0,0,0,.62-1.36,6.93,6.93,0,0,0,.25-1.24,4.65,4.65,0,0,0,.82-1.67l0,0h0a4.74,4.74,0,0,1-.72,1.54c.06-.53.1-1.06.12-1.46a8.28,8.28,0,0,0,.84-.79l-.06-.06a10.2,10.2,0,0,1-.78.73c0-.23,0-.4,0-.48l1.18-.79L17.71,10l-2.38,1.6v-.09Zm.88-2.06,0,0h0l-.09.12h0l-.05.06a3.48,3.48,0,0,1-.5.58.47.47,0,0,1-.24,0h-.13l.51-.4.33-.27.13-.1h0s0,0,0,0V7.85l.17-.06Zm.2-.1,0,0h0Zm-6.08-2c0-.35-.39-.57-.39-.88a.47.47,0,0,1,.2-.37,8,8,0,0,1,1.2-.19,1,1,0,0,1,.48.09c.14.07,3.39,1.93,3.39,2.35,0,0,0,.08,0,.1s.77.32.77.46-.1,0-.11,0S17.6,7,17.39,7h-.13a.65.65,0,0,0,.08.09c.24.14.52.41.76.43a1.21,1.21,0,0,1,.6.21l-.08,0-.2.08c-.26-.09-1-.5-1.05-.53a0,0,0,0,0,0,0c0,.16.41.3.46.33l-.07,0a2.07,2.07,0,0,1-.42-.14s-.11,0-.16,0a1.21,1.21,0,0,1-.33-.13c0-.05,0-.11,0-.16v0c.1,0,.15.09.22.09h.14s0,0,0,0-.2-.09-.21-.1S16.84,7,16.77,7h-.06l.05.11v0l0,0h0l-.09.11h-.08c-.08,0,0,.07-.14.07S15.84,7,15.78,7s-.1,0-.14,0-.42-.14-.44-.33c0,.06-.06,0-.08,0-.19,0-.3-.33-.51-.32,0-.33-.43-.38-.43-.66a.08.08,0,0,1,.07-.08c.09,0,.21.15.29.15s.06,0,.06,0-.09-.11-.09-.14a.08.08,0,0,1,0,0,5.4,5.4,0,0,0,.55.26c.27.09.48.5.68.5s.05-.06.05-.06a.37.37,0,0,0,0-.09c.34.36.6.62.91.62.07,0,.13,0,.13-.06s-.26-.1-.29-.15c.14-.22-.52-.2-.52-.42a.09.09,0,0,1,.09-.08c.14,0,.78.59,1.1.59,0,0,.07,0,.07,0,0-.26-.48-.32-.58-.37a1,1,0,0,1-.39-.24l0,0c-.09-.19,0-.46-.32-.46,0,0-.06,0-.06,0s.25.19.25.25,0,0,0,.06c-.15-.11-.4-.35-.56-.35s-.1,0-.1.05.23.29.26.35c-.15,0-.34,0-.43-.17s-.39-.52-.59-.52a.29.29,0,0,0-.1,0c.09.07.21.13.31.21v0c-.24,0-.5-.14-.75-.17a.38.38,0,0,1-.13-.1v0h.07c.08,0,.25.1.33.1l.09,0c0-.08-.16-.17-.18-.27h0l.21.06c.05,0,.05,0,.05,0S14.45,5,14.43,5a.05.05,0,0,1,.05,0c.19,0,.74.49.92.49,0,0,.1,0,.1,0,0-.2-.46-.31-.53-.35-.24-.13-.46-.33-.71-.33S14.22,5,14,5c-.06,0-.4-.08-.4-.27s.13,0,.13-.15-.16-.07-.17-.07-.14.21-.27.21-.08,0-.16-.08c.08,0,.22,0,.22-.14s0-.09-.08-.09-.38.24-.45.24l-.19,0c-.05,0-.14.05-.14.1a0,0,0,0,0,0,0h.22l.09,0c0,.13.13.19.13.25s-.22,0-.22.12.31.06.31.19-.18.09-.18.14.11.11.11.17-.25,0-.25.08.07.11.07.13-.14.13-.17.13a.21.21,0,0,1-.15,0A.2.2,0,0,0,12.65,5.76Zm-.17.84a.58.58,0,0,1,.07.21c0,.05-.06.2-.14.2s0,0-.05,0S12.43,6.72,12.48,6.6ZM12,5.69s-.08.08-.09.12h0A.23.23,0,0,1,12,5.76c.25,0,.33.24.33.41a.62.62,0,0,1-.12.35l-.05-.13c0,.05,0,.13,0,.18l0,0-.08-.11s0,.14-.07.19,0-.1-.05-.14,0,.14-.09.19,0-.11,0-.17a.4.4,0,0,1-.11.23c0-.07,0-.14,0-.19a.3.3,0,0,1,0,.11l-.18-.22c.05,0,0-.07,0-.09s0-.08,0-.1a.34.34,0,0,1,.06-.12h0s-.06,0-.09,0l-.17-.17A.67.67,0,0,1,11.36,6l-.11,0-.09,0s.11-.13.15-.13.08.26.14.27.19.11.24.11.1-.08.1-.14a.88.88,0,0,1,.07-.2,1,1,0,0,0-.12-.19Zm-.72-.56h0c.05,0,.21.08.21.16v.16c0,.11.27.35.34.44a.35.35,0,0,0-.1.25l0,0a.24.24,0,0,0-.22-.08c0-.14-.1-.48-.34-.48l-.16,0a1.9,1.9,0,0,1-.24-.14s0-.06,0-.11a.58.58,0,0,0,0-.1v0S11.27,5.13,11.27,5.13ZM4.75,7.61l-.29.13h0V7.66c0-.11.33-.24.33-.24.41,0,.77-.31,1-.45,0,0,0,0,0-.07h0c-.32,0-.68.41-.86.41l-.11,0C5,7,5.27,7,5.47,6.8s.31-.43.56-.6A20.6,20.6,0,0,1,8.21,4.79c.25-.13.51-.25.76-.35a2.6,2.6,0,0,1,.92-.23c.2,0,.92.09.92.49a.3.3,0,0,1-.06.22.18.18,0,0,0-.13.08c-.08,0-.15,0-.15.15a.25.25,0,0,0,0,.07c-.14.08-.23.11-.23.23a1.14,1.14,0,0,0,.09.19c0,.09-.1.12-.13.12s-.09,0-.09-.07.11-.1.11-.17-.18-.09-.18-.12.31-.09.31-.21-.27-.05-.33-.08.25-.14.25-.25-.12-.05-.14-.07l.07,0,.21,0c.08,0,.15,0,.15-.09s0-.09-.07-.09-.13.11-.19.11-.34-.26-.46-.26-.08.09-.08.12.19.11.22.12a.23.23,0,0,1-.16.08c-.14,0-.14-.22-.31-.22s-.13.05-.13.08.12.05.12.14S9.15,5,9.12,5c-.2,0,0-.32-.28-.32s-.39.16-.64.29-.47.11-.58.36c0,0,0,0,.09,0s.81-.48.93-.48h0s0,0,0,0-.24.12-.24.2,0,0,0,0l.26-.06a3.16,3.16,0,0,1-.18.27l.08,0c.1,0,.2-.1.29-.1h.11c-.08.18-.26.13-.39.16s-.32.1-.49.13a0,0,0,0,1,0,0c0-.07.28-.17.32-.21a.14.14,0,0,0-.11,0c-.18,0-.46.32-.58.51S7.53,6,7.41,6h0c0-.08.26-.31.26-.34s-.1-.06-.1-.06c-.19,0-.39.26-.57.33,0,0,0,0,0,0s.26-.14.26-.28,0,0-.06,0a.21.21,0,0,0-.22.17.56.56,0,0,0,0,.12c0,.48-1.08.4-1.08.81,0,0,0,0,.07,0,.38,0,1-.57,1.1-.57a.08.08,0,0,1,.09.09c0,.18-.47.13-.53.41,0,0-.28,0-.28.15s0,0,0,0h.2c.24,0,.62-.45.82-.6a.64.64,0,0,1,0,.09.06.06,0,0,0,0,.06c.16,0,.33-.27.5-.4a3.57,3.57,0,0,1,.75-.33s0,0,0,0-.09.09-.09.14,0,0,.06,0,.2-.15.28-.15.08,0,.08.09c0,.22-.33.3-.42.53,0,.06,0,.16,0,.16l-.09,0c-.14,0-.17.16-.33.25s-.11,0-.15,0S7.54,7,7.43,7L7.28,7a1.89,1.89,0,0,1-.59.25c-.11,0-.09-.07-.18-.07a7.19,7.19,0,0,1-1.07.45c-.06,0-.06,0-.15,0,.13-.08.33-.13.43-.32v0h0a7.78,7.78,0,0,1-.87.44ZM5.83,8.76a.35.35,0,0,1-.23,0l-.74-.88,1.07.43a.18.18,0,0,1,0,.11A.19.19,0,0,0,6,8.55c.64.56,1.36,1.09,2.11,1.63v.06l-2-1.49-.05.06,1,.77c0,.09,0,.44,0,.67s0,.37,0,.48L5.92,10V9.59L6,8.75H5.83ZM7.55,9.92l.26.19v0H7.15a1.48,1.48,0,0,1,0-.21Zm-.39-.09a1.34,1.34,0,0,0,0-.19l.26.19Zm.65.4a1.28,1.28,0,0,0,0,.21H7.15v-.21Zm0,.29a1.48,1.48,0,0,0,0,.21H7.17c0-.05,0-.13,0-.21Zm0,.3a1.1,1.1,0,0,0,0,.18v0h-.3l-.32-.21Zm0,.3,0,.15-.22-.15Zm.26.41v.09L5.72,10l0,.07,1.18.8c0,.07,0,.24,0,.48a8.41,8.41,0,0,1-.77-.74L6,10.68a10.77,10.77,0,0,0,.85.79c0,.4.06.94.12,1.47a4.85,4.85,0,0,1-.72-1.55h0l-.08,0A4.65,4.65,0,0,0,7,13.09a6.93,6.93,0,0,0,.25,1.24,8.3,8.3,0,0,0,.62,1.36,2,2,0,0,1-.47-.16c-1.26-.61-1.5-4.23-1.51-4.27H5.82S6.07,15,7.38,15.61a1.84,1.84,0,0,0,.56.17c.18.31.34.55.44.69a3.47,3.47,0,0,0,.39.5L8.63,17a2.58,2.58,0,0,1-1.41,0l-.36-.17-.07-.08A5.54,5.54,0,0,1,5.7,14.36a15,15,0,0,1-.23-1.7V11l.08-.89H5.14c-.07-.05-.51-.55-.83-.92l1.14.4a.19.19,0,0,1,0,.09.29.29,0,0,0,0,.13.62.62,0,0,0,.21.15l0,0h0ZM32.57,11V6.34h-.79V11Zm2.81,0h.79V8.26h.67v-.6h-.67V7.47c0-.36.16-.54.49-.54A1.05,1.05,0,0,1,37,7V6.32a1.42,1.42,0,0,0-.44-.06,1.15,1.15,0,0,0-.86.32,1.21,1.21,0,0,0-.31.89v.19h-.5v.59h.5Zm-3,4.37h.06l0,0,.25.11.17.09a.46.46,0,0,1,.16.14.42.42,0,0,1,0,.15.25.25,0,0,1-.13.23.55.55,0,0,1-.34.09,1.7,1.7,0,0,1-1-.3v.73a2,2,0,0,0,1,.2,1.38,1.38,0,0,0,.9-.26.88.88,0,0,0,.34-.74.79.79,0,0,0-.2-.55,2.29,2.29,0,0,0-.56-.39L33,14.88l-.14-.07-.13-.06a.35.35,0,0,1-.11-.07l-.09-.08a.18.18,0,0,1-.06-.09.31.31,0,0,1,0-.1.27.27,0,0,1,.11-.22.53.53,0,0,1,.32-.09,1.59,1.59,0,0,1,.83.19v-.7a2.06,2.06,0,0,0-.85-.15,1.42,1.42,0,0,0-.88.27.88.88,0,0,0-.35.73A1,1,0,0,0,32.42,15.4Zm-1.48-5.05H29.12V9.14h1.6V8.46h-1.6V7.24h1.8V6.56H28.27V11h2.67Zm-1.15,6.54a2,2,0,0,0,1-.22V16a1.52,1.52,0,0,1-.9.26,1.14,1.14,0,0,1-.68-.19.92.92,0,0,1-.37-.56H31A3.08,3.08,0,0,0,31,15a1.64,1.64,0,0,0-.38-1.16,1.39,1.39,0,0,0-1.05-.4,1.47,1.47,0,0,0-1.09.46,1.77,1.77,0,0,0-.44,1.26,1.71,1.71,0,0,0,.47,1.24A1.67,1.67,0,0,0,29.79,16.89Zm-.67-2.6a.67.67,0,0,1,.5-.21.58.58,0,0,1,.47.19.86.86,0,0,1,.18.52v.1H28.85A1,1,0,0,1,29.12,14.29Zm18.56.91a1.79,1.79,0,0,0,.42,1.22,1.52,1.52,0,0,0,1.2.48,1.51,1.51,0,0,0,1.19-.49,2.05,2.05,0,0,0,0-2.5,1.55,1.55,0,0,0-1.21-.49,1.49,1.49,0,0,0-1.17.51A1.8,1.8,0,0,0,47.68,15.2Zm1-.81a.66.66,0,0,1,.58-.32.68.68,0,0,1,.61.31,1.48,1.48,0,0,1,.19.8,1.32,1.32,0,0,1-.2.77.71.71,0,0,1-1.17,0,1.38,1.38,0,0,1-.21-.78A1.46,1.46,0,0,1,48.71,14.39ZM38.43,11.06a1,1,0,0,0,1-.58V11h.8V7.66h-.8V9.47a1.06,1.06,0,0,1-.2.7.66.66,0,0,1-.54.24.58.58,0,0,1-.43-.17.7.7,0,0,1-.15-.49V7.66h-.8V9.94a1.13,1.13,0,0,0,.29.83A1.07,1.07,0,0,0,38.43,11.06Zm8.71,3v-.6h-.83v-.81h-.8v.81H45v.6h.5v1.7a1,1,0,0,0,1.09,1.1,1.5,1.5,0,0,0,.6-.11v-.69a.86.86,0,0,1-.47.14.45.45,0,0,1-.31-.11.4.4,0,0,1-.11-.32V14.08ZM40.46,16.4a1.7,1.7,0,0,0,1.27.48,1.91,1.91,0,0,0,1-.22V16a1.46,1.46,0,0,1-.9.27,1.14,1.14,0,0,1-.68-.2.87.87,0,0,1-.37-.55h2.11A2.43,2.43,0,0,0,43,15a1.58,1.58,0,0,0-.39-1.16,1.35,1.35,0,0,0-1-.4,1.42,1.42,0,0,0-1.09.46A1.7,1.7,0,0,0,40,15.17,1.69,1.69,0,0,0,40.46,16.4Zm.6-2.12a.67.67,0,0,1,.49-.21.6.6,0,0,1,.48.2.83.83,0,0,1,.17.52v.1H40.79A1,1,0,0,1,41.06,14.28Zm7.13-5a1.05,1.05,0,0,1,.21-.67.61.61,0,0,1,.53-.26,1,1,0,0,1,.34.06V7.65l-.23,0a.85.85,0,0,0-.85.63v-.6h-.8V11h.8Zm-4.3,1.48a1.11,1.11,0,0,0,.8.29,1,1,0,0,0,1-.59V11h.8V7.66h-.8V9.47a1.08,1.08,0,0,1-.2.7.65.65,0,0,1-.54.23.57.57,0,0,1-.43-.16.72.72,0,0,1-.15-.49V7.66h-.8V9.94A1.14,1.14,0,0,0,43.89,10.77ZM41.3,10a1,1,0,0,0,1.09,1.1A1.5,1.5,0,0,0,43,11v-.69a.76.76,0,0,1-.46.14.39.39,0,0,1-.31-.11A.4.4,0,0,1,42.1,10V8.26h.83v-.6H42.1V6.85H41.3v.81h-.51v.6h.51Zm9.88,1.12a1.52,1.52,0,0,0,1.2-.5,1.84,1.84,0,0,0,.43-1.25,1.85,1.85,0,0,0-.43-1.24,1.67,1.67,0,0,0-2.38,0,1.85,1.85,0,0,0-.44,1.27A1.75,1.75,0,0,0,50,10.6,1.5,1.5,0,0,0,51.18,11.08ZM50.6,8.57a.66.66,0,0,1,.58-.32.67.67,0,0,1,.6.31,1.48,1.48,0,0,1,.19.8,1.4,1.4,0,0,1-.19.77.72.72,0,0,1-1.18,0,1.37,1.37,0,0,1-.2-.78A1.37,1.37,0,0,1,50.6,8.57ZM38.52,12.15V14a1.12,1.12,0,0,0-1-.56,1.3,1.3,0,0,0-1,.47,1.85,1.85,0,0,0-.41,1.26,1.94,1.94,0,0,0,.4,1.22,1.22,1.22,0,0,0,1,.5,1.12,1.12,0,0,0,1-.57v.53h.8v-4.7Zm-.24,3.79a.77.77,0,0,1-.6.27.72.72,0,0,1-.58-.28,1.18,1.18,0,0,1-.23-.75,1.16,1.16,0,0,1,.24-.78.73.73,0,0,1,.58-.29.8.8,0,0,1,.58.26,1.08,1.08,0,0,1,.25.77A1.21,1.21,0,0,1,38.28,15.94ZM60,15.38l0,0h0l0,0,.25.1.17.1a.38.38,0,0,1,.16.14.33.33,0,0,1,0,.15.26.26,0,0,1-.13.23.55.55,0,0,1-.34.08,1.6,1.6,0,0,1-1-.29v.73a2.24,2.24,0,0,0,1,.2,1.48,1.48,0,0,0,.9-.26.89.89,0,0,0,.34-.74.74.74,0,0,0-.21-.55,2,2,0,0,0-.56-.39l-.14-.06-.15-.07-.12-.06-.12-.07-.08-.08a.24.24,0,0,1-.06-.09.3.3,0,0,1,0-.1.28.28,0,0,1,.12-.23.51.51,0,0,1,.32-.09,1.62,1.62,0,0,1,.83.2v-.7a2.09,2.09,0,0,0-.85-.15,1.4,1.4,0,0,0-.88.27.85.85,0,0,0-.35.73A1,1,0,0,0,60,15.38Zm-8.54-.22a1.92,1.92,0,0,0,.39,1.22,1.25,1.25,0,0,0,1,.51,1.12,1.12,0,0,0,1-.57v.52h.8V12.15h-.79V14a1.14,1.14,0,0,0-1-.56,1.33,1.33,0,0,0-1.05.47A1.85,1.85,0,0,0,51.43,15.16Zm1-.77a.72.72,0,0,1,.58-.28.79.79,0,0,1,.58.25,1.1,1.1,0,0,1,.25.77,1.18,1.18,0,0,1-.24.8.78.78,0,0,1-.6.28.7.7,0,0,1-.57-.29,1.12,1.12,0,0,1-.24-.74A1.18,1.18,0,0,1,52.48,14.39ZM57,16.89a1.51,1.51,0,0,0,1.2-.49,1.86,1.86,0,0,0,.43-1.25,1.83,1.83,0,0,0-.43-1.24,1.48,1.48,0,0,0-1.2-.49,1.52,1.52,0,0,0-1.18.5,1.89,1.89,0,0,0-.44,1.28,1.75,1.75,0,0,0,.43,1.22A1.53,1.53,0,0,0,57,16.89Zm-.58-2.51a.66.66,0,0,1,.58-.31.64.64,0,0,1,.6.31,1.47,1.47,0,0,1,.2.79,1.41,1.41,0,0,1-.2.78.71.71,0,0,1-1.18,0,1.62,1.62,0,0,1,0-1.56Zm-51.78-5,.88.65,0-.19L4.63,9.3Zm8.11-.68,0,0,.09.18h0a.28.28,0,0,1,0,.06s0,0,0,0h-.05l0,0v0s0,0,0,0h0a.09.09,0,0,0,.06-.06.3.3,0,0,0,.05-.1l.1-.28s0,0,0,0h0v0l-.11,0v0h0l0,.15-.06-.11h0v0l-.14.05v0h0Zm.75.32h0A.22.22,0,0,0,13.65,9a.27.27,0,0,0,0-.38.2.2,0,0,0-.16-.07.24.24,0,0,0-.17.06.22.22,0,0,0-.08.18.29.29,0,0,0,.07.19A.29.29,0,0,0,13.49,9.05Zm-.11-.41a.14.14,0,0,1,.1-.05h0a.16.16,0,0,1,.1.05.27.27,0,0,1,0,.17.24.24,0,0,1,0,.16.13.13,0,0,1-.1,0h0a.13.13,0,0,1-.11,0,.34.34,0,0,1,0-.16A.28.28,0,0,1,13.38,8.64Zm.57.42h0s0,0,0,0,0,0,0,0V8.84s0,0,0,0,0,0,0,0h0l0,0h0s0,0,0,0a0,0,0,0,0,0,0l0,0a.07.07,0,0,0-.06,0l0,0v0h-.13v0h.05s0,0,0,.06V9s0,0,0,0h-.05v0l.19,0ZM11.06,5.33h0l.05,0a.06.06,0,1,0,.12,0l0,0,0,0v0l0,0a.06.06,0,0,0,0,0l-.1,0H11v0A.1.1,0,0,0,11.06,5.33ZM5.92,8.46,5.07,8v.11L6,8.76Z"/></g></g></svg>